<svg width="20" height="20" viewBox="0 0 20 20" fill="none" xmlns="http://www.w3.org/2000/svg">
<path fill-rule="evenodd" clip-rule="evenodd" d="M4.62478 4.63247L2.18383 5.00014L2 3.77966L5.66142 3.22817L6.21291 6.88958L4.99244 7.07341L4.62478 4.63247Z" fill="#707276"/>
<path fill-rule="evenodd" clip-rule="evenodd" d="M5.50024 3.53116C3.45478 4.96007 2.1168 7.33198 2.1168 10.0164C2.1168 14.3825 5.65618 17.9218 10.0222 17.9218C14.3883 17.9218 17.9277 14.3825 17.9277 10.0164C17.9277 5.66297 14.4087 2.13144 10.0601 2.11105L10.035 3.11098C13.8429 3.11789 16.9277 6.2069 16.9277 10.0164C16.9277 13.8302 13.836 16.9218 10.0222 16.9218C6.20847 16.9218 3.1168 13.8302 3.1168 10.0164C3.1168 7.82671 4.13598 5.87507 5.72584 4.60995L5.50024 4.61576V3.99864V3.53116Z" fill="#707276"/>
<path d="M1.64918 16.7664L1.2933 17.1176L1.64451 17.4735L2.51148 18.352L2.86269 18.7078L3.21857 18.3566L18.2986 3.47419L18.6545 3.12298L18.3032 2.7671L17.4363 1.88863L17.0851 1.53275L16.7292 1.88397L1.64918 16.7664Z" fill="#707276" stroke="white"/>
</svg>
